<svg xmlns="http://www.w3.org/2000/svg" viewBox="0 0 192.744 192.744" fill="#000000">
<path stroke="#000000" stroke-width=".216" stroke-miterlimit="2.613" d="M87.053 118.908l-.334.816.223 1.48.759 3.313 1.314 4.369 1.092 2.61 1.462 3.332 1.037 1.962 1.592 2.888 1.906 3.219 1.5 2.075 1.258 1.684.056.926-.166.759-.703.277-2.111.111-3.702-.221-3.054-.39-2.684-.481-3.259-.925-1.647-.722-1.092-.481-1.241-.223-1.425.056-.758.333h-1.037l-2.462-.389-1.407-.481-1.536-.111-2.444-.054-1.851-.168h-1.703l-1.684.111-1.148.48-.815.223-.278.389.056.76.777 1.257 1.463 2.019.87.369 1.37.982 1.573.871 1.703.554 2.444.056 2.184-.223 1.851-.424 1.574-.5.666.333.315.647.555.167 1.351-.056 1.703.112.871.277 1.036-.277 3.369.423 2.295.334 3.758.816 2.739.813 2.704.927 2.385 1.092.927.666 2.463.111 1.313-.333.703-1.426.758-1.739-.218-1.407-.926-1.759-1.24-2.555-.984-2.665-.722-3-.313-2.572v-2.499l.259-2.943.334-1.482-.39-1.257-.813-.648-1.629-1.203-1.151-.815-.218-1.574-.538-1.684-1.02-1.648-1.091-1.406-1.369-1.313-1.741-1.316-1.962-1.463-1.037-.499-1.036-.314-.87.147-.759.5z"/>
<path d="M80.722 8.528l-.018.722-.759.167-.981-.129-1.481.314-1.11.352-.889.056-.278.389.315.537.667.148.629-.185.722-.315.741-.037 1.573.074 1.203.37 1.425.352 2.092.944.186.445-.222.351-.981.352-.592.278-1.055.703-1.61.852-1.962 1.389-2.24 1.018-1.777 1.167-1.61.704-1.518.37-1.333.037-1.833.037-.704.185-.407.852-.315.926-.352.629-.889 1.333-.852 1.48-.574.722-.056.833.056 1.166v1.24l.759.685.667.352.796-.056 1.296-.352 1.462-.444 1.981-.796.796.037.185.5-.185.481-.667.352-2.018.759-1.518.444-.296.5-.056.537.5.444 1.055.129h.852l1.073-.037 1.167-.278 1.685-.889 1.111-.222.944-.186.722.241 1.055-.055 1.037.13.852.5 1.333.129 1.74.537.944.129 1.462-.259 1.87.13.814.314.445.759-.093.981-.222 1.203-.444 1.388-.629 1.74-.629 1.907-.667 1.74-.444 1.203-1.518 2.37-1.833 2.313-1.647 2.277-2.092 2.091-1.925 1.629-1.222 1.295-.647 2.129-.907 1.074-1.148.814-1.388 1.147-2.129 1.296-1.795.907-1.147 1.314-.815 1.056-.814.5-1.147.574-.74-.167-1.462-.667-1.629-1.055-2.388-1.055-2.684-1.407-1.388-1.055-1.722-1.388-1.888-1.555-2.036-.74-1.795-.315-2.295.481-1.629.907-1.407.981-.722 1.795-.5 1.389-.574 2.128-.647 1.295-.648 1.981-.092 2.37-.574 1.388-.648 2.203-.574 2.203-1.055 2.055-.574 2.036-.333 2.536-.907 2.129-.574 1.222-.074 1.222-.074 2.055v3.591l-.408 1.48.241 1.296-.094 2.129.741 1.703.574.407 1.055-.334.98-.889 1.407-1.703 1.222-1.962.481-1.629-.314-1.314-.408-1.629-.5-1.962-.481-2.054-.259-1.556v-1.462l.333-1.647.814-2.518.814-1.314.741-.666.573-.889 1.056-.093.5-.314.74-.667.814-.722.74-.981.314-1.146.26-.981.074-1.314.241-1.147.574-.722.574-.167.74.241 1.056.574 1.147 1.314 1.222 1.795 1.388 1.629 1.481 1.314 1.314 1.055 1.292.573.407.815-.407.408-1.389-.315-1.962-.167-2.536-.5-2.443-.481-2.943-.093-1.721.093-1.313.814-1.388 1.222-1.148 1.962-.889 2.221-.092 1.629.5 2.943 1.147 3.758.574 2.943.722 2.869.5 2.019.241 1.888.647 2.129.5 3.258.481 1.147 1.24.981 1.148 1.146 1.295 1.963.907 2.295 1.388 2.036 2.037 1.962 1.48.907.98.074.814-.241.5-1.146.555-.981.333-1.388v-3.185l-.407-.907c-.074 0-.074-.573-.074-.647l-.167-.573-.667-.98-1.222-1.223-2.277-.98-.833-.26-.148-1.388.074-.889-1.555-1.796-.981-2.296-.815-3.259-.666-3.017-1.129-2.37-.407-2.869.647-1.721 1.148-.648h.888l1.314 1.148 1.888 1.148 1.962.722 4.738 2.295 2.296 1.314v1.222l2.11 1.221 2.703.907h5.646l-.407 1.056-.24.573.722 1.37 1.388 2.055 2.222 2.202 2.684 2.944 2.295 2.035 4.295 3.295 3.48 1.869 2.61 1.389 3.351 2.277 3.091 2.203 2.666 2.258 2.776 3.758.129 1.572.629 1.63 1.703 1.222 1.556.611.963-.131.761-.739 1.092-1.166.26-1.573 1.295-2.24.277-1.722.205-1.906.129-1.5.426-.942.869-.426h.834l.055.629-.609.666-.537 1.443-.408.889v1.092l-.147 2.314-.332 1.166-1.019 1.758-1.371 2.26-1.368 2.461-.813 3.203-.408 3.351.408 3.739.537 2.185 1.295 2.869 1.647 3.406 1.295 2.665 1.776 2.796 2.109 2.592.408.888v.611l-.277.759-.74 1.222-1.166 1.629-2.389 3.074-2.389 2.59-2.184 2.39-.943.555-1.926.74-1.148 1.093-.611 1.24-1.369 1.702-1.553 1.702-1.907 1.981-1.167 2.036-.685 2.055-.407 1.702.074 1.37.814.87h3l1.294-.129 1.354-.813 1.776-.815.276-.685h.611l.943-.408.889-.832.482-3.258-.279-.687-.129-.685.482.129.535.148.557-.408.889-.555.943-1.222 1.166-1.647.611-1.499.129-1.223.76-.556 1.092-.61.889-.537.74-1.499 1.574-1.646 2.941-2.722 2.239-1.499 2.261-1.24.534-.537.205-.556.479-.61-.334-.813-.071-1.5-.298-1.405-.352-.814-.777-1.333-1.239-1.556-.61-1.166-.13-1.223v-1.646l.276-.943.74-2.536.758-1.222.816-.481 1.498-.944 1.777-1.518 2.389-2.035 1.629-1.703 1.646-1.907 1.703-1.925 1.223-2.166 1.018-1.852.963-2.109.685-2.334.205-2.164.129-1.647.556-.537.61-.147.537.353.481 1.147.129 1.572.224 1.499-.147 1.02-.131 1.573v3.351l.407 2.647.479.685.408-.056.203-.481-.277-1.092v-1.853l.556-1.555.26-2.258.276-1.574.354-.74h.407l.332.333.334 1.296.276 1.24-.129 1.962-.408 2.666-1.239 2.593-1.146 2.461-.687 2.11-.129 1.296.129 1.499.479 1.443h.89l.463-.629-.261-.685-.202-1.223.813-1.093.945-1.296.629-1.221 1.498-2.39 1.223-2.185.537-2.389.48-3.146v-3.129l-.609-2.185-1.223-1.703-.148-.813.557-.277.686.332.889 1.093 1.092 1.98.463 2.312.277 3.073.686 2.129.074.056.943 2.11.61.222.276-.555-.073-.334-.464-1.572-.073-1.573.073-2.313.408-2.592v-1.296l-.147-1.092-1.093-2.186-.944-1.573.334-.61 1.298-.277 1.774-.813 1.907-1.02 1.703-1.499 2.185-2.942 1.239-2.443 1.019-2.332.334-3.739.074-3.351-.537-4.146-.629-2.999-.537-3.073-.334-3.202.261-2.036.555-2.536 1.147-2.518 1.646-2.591.611-1.647.129-.814-.535-.74-.756-.355v1.167l-.611.685-1.092 1.629-.611.407-1.703 2.055-.684 1.092-.814 1.833-.889.148-.814-.481-.482-2.185.131-2.517.556-2.333 1.353-2.185 2.737-4.091 1.632-3.332.202-2.333-.26-.74-.479.481-.814 2.036-1.24 2.055-1.834 1.5-2.109 2.036-3.146 3.684-.61-.056-.203-.629-.074-1.5.203-2.795.963-3.128 1.703-3.48 2.258-2.795 2.795-2.388.26-.555-.334-.259-1.424.74-1.168.759-1.98 1.703-2.461 2.185-1.76 2.388-1.721 3.128-.943 2.536-.277 2.518-.131 3.406.814 3.554.814 3.073 1.573 4.832 1.019 5.794.611 4.423v2.39l-.261 2.517-.405 2.057-.761 2.312-2.869 3.609-2.926 2.665-3.757 2.11-3.61.203-.479-1.759-1.295-2.536-1.777-2.443-1.166-1.442-1.555-2.11-3.353-3.201-3.405-2.795-1.498-1.168-4.703-3.184-6.756-5.665-3.685-4.572-4.034-6.608-1.093-3.961.276-2.462.556-.481 1.427.962 2.258 1.092 1.834-.074 2.108.963 2.259 1.37 1.166.944 1.5 1.037 1.555.204.352-.685-.408-.074-.48.204-.758-.481-.668-1.018-.961-1.574-1.852-1.702-1.832-.685-1.02-.204.205-.537h1.424l1.647.537 2.388 1.573 1.094.481.406-.556-.687-.944-1.851-1.648-2.869-1.499-3.463-1.351-.684-.555.684-.481 1.556.759 2.871.481 3.071 1.222 1.629.814 2.869.407 2.056-.277 1.146-.537 1.574-.963.686-.666.074-.481-.637.052-.608.629-2.037.667-1.777.277-1.5-.204-1.443-1.147-1.295-1.518-1.555-1.147-2.332-.481-2.24-.759-.963-.611.074-.536.889.129h1.98l1.979-.129h2.037l1.093-.204.889.74 1.424.352h1.166l.537-.407-.943-.278-1.166-.759-1.223-1.147-1.98-1.037-1.629-.204-1.498-.204-.557-.333 1.094-.611h1.775l1.371.407 1.352.686 2.184.944 2.184.074 1.166-.555.334-.741-.889-.407-1.832-.074-1.574-.537-1.368-1.166-1.5-.759-1.979-.333-1.703-.611-.74-.962.129-.481 1.094.222 1.369.407.814.611 1.166.129.129-.611-1.221-.962-.354-.87 1.646.259 1.555.814 1.98.222.76 1.425 2.035 1.222.111-.019.445-.185.537-.333-.261-.407-.76.055-.685-.944-1.371-2.11-2.387-2.128-2.443-1.092-.686-.814-1.5-1.777-1.369-.74-.203-.685.609-.407 1.445.333 2.85.814 1.371.481.889 1.24 1.424.741h1.093l1.444.407 1.572-.278.611-.537-.889-.759-1.295-.333-1.5-.204-.89-.759-1.166-1.703-.276-1.092-1.5-1.352-1.629-1.037-1.853-1.148-2.035-1.906-.129-.556h.461l2.666 2.11 2.722 1.573 1.444 1.092L120 45.325l1.646.888.945.278.48-.759-.684-.259-1.427-1.296-.407-1.443-1.498-1.629-1.24-1.037-.611-1.555-2.109-3.146-2.869-2.518-.131-.814 1.018.129 1.445.741 2.312.962 2.389.13 1.777.833 1.906.333 1.629-.481-.129-.685-1.852-.408-1.63-.74-3.276-1.573-1.775-.962-.945-1.148.334-.408.48.333.74.278.963.074h1.574l1.35-.148 2.057-.129 1.572.611 1.629 1.166.686.204.074-.611-.557-.555-1.629-1.5-2.535-1.296-1.832-.204-3.48-.204-.813-.962-1.776-1.777-1.98-1.351-.74-.685.611-.481.943.407 1.702.889 1.925.685 2.592.611h2.24l1.852 2.055 1.5.888.537-.555-2.037-2.999-3.203-2.313-2.666-.629-2.258-2.37-1.98-1.166-2.721-.685 1.5-1.295 2.664-.889 1.98-.611.463-.61-.259-.481-1.094-.277-1.035-.204-7.7.148-1.369-1.518-1.556-1.018-1.979-.889-2.593-.408H96.9l-.61-.814-2.11-2.258L91.644 2.9l-1.555 2.592-.074.814.741.962.074.814-.536.481-1.722.129-3.129-.889-3.073-.663-1.426.055-2.332.481.277.815 1.296-.056.537.093z"/>
<path stroke="#000000" stroke-width=".216" stroke-miterlimit="2.613" d="M88.997 7.676l-.149-1.573-2.24-2.721-.685-.204-.481.685.074.815-.759.684-.074.945.889.481 1.24.888h2.185z"/>
</svg>
